<?xml version="1.0" encoding="UTF-8" standalone="no"?>
<svg
   version="1.1"
   id="svg1"
   width="324"
   height="200"
   viewBox="1007 623 2302 1423"
   xmlns="http://www.w3.org/2000/svg">
   <defs
      id="defs1">
    <linearGradient x1="50%" y1="0%" x2="50%" y2="100%" id="nvim-blue">
      <stop stop-color="#16B0ED" stop-opacity="0.8" offset="0%"/>
      <stop stop-color="#0F59B2" stop-opacity="0.837" offset="100%"/>
    </linearGradient>
    <linearGradient x1="50%" y1="0%" x2="50%" y2="100%" id="nvim-green">
      <stop stop-color="#7DB643" offset="0%"/>
      <stop stop-color="#367533" offset="100%"/>
    </linearGradient>
    <linearGradient x1="50%" y1="0%" x2="50%" y2="100%" id="nvim-cross">
      <stop stop-color="#88C649" stop-opacity="0.8" offset="0%"/>
      <stop stop-color="#439240" stop-opacity="0.84" offset="100%"/>
    </linearGradient>
   </defs>
   <g
      id="g1">
    <g
       id="group-R5">
      <path
         id="path4"
         d="m 18632.9,14663.1 v -818 H 1368.5 v 818 c 0,368.1 298.76,666.9 666.88,666.9 H 17966.1 c 368.1,0 666.8,-298.8 666.8,-666.9"
style="fill:#333333;fill-opacity:1;fill-rule:nonzero;stroke:none"
          transform="matrix(0.13333333,0,0,-0.13333333,824.5,2667)" />
      <path
          id="path5"
         d="M 18632.9,13348.1 V 5326.9 c 0,-368.1 -298.7,-666.9 -666.8,-666.9 H 2035.38 c -368.12,0 -666.88,298.8 -666.88,666.9 v 8518.2 H 18632.9"
          style="fill:#000000;fill-opacity:1;fill-rule:nonzero;stroke:none"
         transform="matrix(0.13333333,0,0,-0.13333333,824.5,2667)" />

      <path
         id="path7"
         d="m 7602.34,9315.8 c 56.43,-56.6 56.43,-148.2 0,-204.7 C 6891.93,8399 6181.51,7686.9 5471.1,6974.7 c -48.75,-48.7 -127.79,-48.7 -176.54,0 l -369.39,369.4 c -48.75,48.8 -48.74,127.8 0.03,176.6 L 6618.77,9213.4 4925.22,10907 c -48.77,48.7 -48.74,127.8 0.07,176.6 l 369.27,368.7 c 48.77,48.6 127.75,48.6 176.47,-0.1 710.44,-712.1 1420.87,-1424.3 2131.31,-2136.4"
          style="fill:#006ec4;fill-opacity:1;fill-rule:nonzero;stroke:none"
            transform="matrix(0.16,0,0,-0.17,700,3000)" />

      </g>
      <g transform="translate(2173, 1054) scale(1.044)" id="nvim-logo">
        <path d="M0,155.5704 L155,-1 L154.999997,727 L0,572.237919 L0,155.5704 Z" fill="url(#nvim-blue)"/>
        <path d="M443.060403,156.982405 L600,-1 L596.818792,727 L442,572.219941 L443.060403,156.982405 Z" fill="url(#nvim-green)" transform="translate(521, 363.5) scale(-1, 1) translate(-521, -363.5)"/>
        <path d="M154.986294,0 L558,615.189696 L445.224605,728 L42,114.172017 L154.986294,0 Z" fill="url(#nvim-cross)"/>
      </g>
  </g>
</svg>
